<svg version="1.1" xmlns="http://www.w3.org/2000/svg" viewBox="0 0 918.48828125 526.29296875" width="1836.9765625" height="1052.5859375">
  <!-- svg-source:excalidraw -->
  <!-- payload-type:application/vnd.excalidraw+json --><!-- payload-version:2 --><!-- payload-start -->eyJ2ZXJzaW9uIjoiMSIsImVuY29kaW5nIjoiYnN0cmluZyIsImNvbXByZXNzZWQiOnRydWUsImVuY29kZWQiOiJ4nM1dWXNcdTAwMWLHXHUwMDExfuevUDGvxnjuw2/xpTiVcmSrXCLZlXKpIFx1MDAxMZIggVx1MDAwNEOAOqzSf0/3XHUwMDEyWFx1MDAwMDu93G9JJqJcXOWSXHUwMDE26Fx1MDAwZnP09PS9n45cdTAwMWU8OF5/PJ9cdTAwMWR/8+B49uHFdDE/uZi+P/6Kn7+bXazmyzP6yDb/Xi0vL14033y9Xp+vvvn66+n5uXo1Xz9fLt+qXHUwMDE3y9Mrstlidjo7W6/oi/+mfz948Kn5/95cdTAwMGa9vJjN2p9pPtn9lNGh+/Tn5Vnzs1lcdTAwMWJbslx0rv3CfPU9/dp6dkKfvpwuVrPdJ/zo+Mnf3vz2w9TFcvbXybNcdTAwMGbp9PzVd78sdr/6cr5YPF5/XFw0g1otae67z1bri+Xb2dP5yfr1dlx1MDAwMfae91FdLC9fvT6brXjypn26PJ++mK8/NrPT7dPp2atcdTAwMDZj9+RcdTAwMDP9y+uorLcmp906NJTZK2t0cXvPr8by3XKxvOCx/MXM+L/daJ5PX7x9RUM6O2m/s76Ynq3Op1x1MDAxN7RBu++9387SXHUwMDE4XHUwMDE1csl+/0dez+avXq+bXHUwMDExZFx1MDAxNV1MXHUwMDA3Q1vNmsU3wWTN/6X2XHUwMDEz/uHzn05cdTAwMWE2+GO35Fx1MDAxN9PT2U9Mcna5WOyv29nJZt1cdTAwMGU+eM5cdTAwMWb8sMdRO6jL85Pp1dab5HRcbiVcdTAwMTljym5cdTAwMDCL+dnbLtxi+eKtwC3ny/k+w/Kf3d9cdTAwMWXsdqj5R/v3P75cdTAwMTK/PdEqlnKwg1x1MDAxOJ1VOkbafzuSzqliKjKj6CT5SINcdTAwMTikT0rnsM9Y/MepzVZcdTAwMGaSl4or+E9QPmebjVx1MDAxZFx1MDAwNjBFnIBX6epcdTAwMWNcZi9cdTAwMWPNoJnqPr01KqerXHUwMDAzM7yCvlx1MDAxZO1cdTAwMDFcdTAwMDRcclxmnYTXqiRcdTAwMWJDZ1x1MDAxNi6p1DxcdTAwMWNcdTAwMDaIKlx1MDAwYvtAj81mdVx1MDAwNiGCUaVE3YVcYl5Fg+0lfzWV7lJcdTAwMDZeXHUwMDA3jTFTSCp6XHUwMDFmXFxnKWPaXHUwMDAyXHUwMDBmXCJEOlx1MDAwN95Wg8haZZAjo1Nap+5u5oCvZCSGSNVmlqxcXMrlXHUwMDE2XGJGW5W0Q1x1MDAxOKpcdTAwMDfAaOW1dVx1MDAxZWFrWlx1MDAwN1x1MDAxN0xcdTAwMDVhSWB4dCGMclZ3d5PuYYVcdTAwMGVcImR1SOuCslx1MDAwZeUmXHUwMDEyI76WpcZcdTAwMTVcdTAwMDUzpFXu8EprXHUwMDEwvMPFg88qi1x1MDAxOElh9HSGO1x1MDAwYlx1MDAxOOiSXGLgXG56Olx1MDAxMKGWXGakXGKhvERSSLiRiDNUXG5cdTAwMGXjZ+eUN7VoMCRcdTAwMWJssdjJtrSO1VwiXHUwMDEyh+Vccotcclx1MDAwM9Agci3qXHKdlWBAXHUwMDExZ1x1MDAxMuk4XHUwMDAyS8eoMEFNi7ZcdTAwMTGnXHUwMDA39EkrvTltwE1fLVx1MDAwM5FvZfdcdTAwMTA5iYAuMZ1oXHUwMDFiXHUwMDEyclGZoHTyNS8kXHUwMDEyN1xiI1hcdTAwMTJgydXD9/DwXHUwMDFkSTDhpjQpqFxyl1x1MDAwZlwiXHUwMDE0VUs1nJzYPlxut9xcYlx1MDAwNOI3QeW5Wlx1MDAwNEhloVxy06G+ongjjcVumFxcc1x1MDAwMT+BmCAnlUNcdTAwMTDOXHUwMDExaSvgYS60WFx1MDAxMoJXmMJktJHPXHUwMDExX/9cdTAwMWFcdTAwMTNKhnXEUqtcbleSXHUwMDExk41kMrRcdTAwMTfBoXAvsLpgLG28dE15VqfAc0lXqq91N77pIJY0JKCt8bV8Jd1cdTAwMTbTQI0jy7M+lnRcXFx1MDAxMY42LtNcdTAwMWFUelx1MDAxZi9NxqS78UZV2lx1MDAwZS1KwIidXHUwMDEylCWPWjG8VZJQ0pl25WpVhyFcdTAwMDKdqlowXHUwMDExo0eUkUhT8IJcdTAwMDZfSLGHR5GUMa6yZVi4gfZcdTAwMTSPQuAkOphcdTAwMDGUj7xcdTAwMWJJuCbIvNjKnWFcYtL3O3PgqYFKkyGVJ1x1MDAwYvozoW6Ni2FcYt+qNlx1MDAwNyadJa3PgYeSXHUwMDBlj2BcclnaZlS0sHVe655s3YJjIKXJSTp82lx1MDAxYUmIiEyxXGJnXHUwMDFiUn+Nia3JcsDUxJCgiLbiXGZcIjxcdTAwMDE6xdvzc7CTdNliJkBJW+Nzn571OHBcdTAwMGXFqY2mfVx1MDAwMEB6XHUwMDFiaEfl0nX/NVx1MDAwMEE5j4n37LtGXGJpsqB0ZP2y2v5JVqBYi1nUdia4e4Vkj7SBXHUwMDEzY1BcdTAwMWVcYsTu3dVndyckjNixUsuSXHTxZdh47IZcdTAwMTD85lx1MDAxYb8xfVx1MDAxMO7midmpkYNcdTAwMDB0XHUwMDBiVT62MVx1MDAwMHS/XHUwMDBi3slRXGKkX1Q8MIaeTJSN4L0xhFWCJT1cbkErK9xsYyAsXHUwMDFmXHUwMDFjXSlcbqMgyKDv3kvMTslh54lvXHUwMDE1K82CJFx1MDAxYWhI0lx1MDAxZCa4K1x1MDAxOWGrflxmXCJcdTAwMDTxcuRjifqOSbus74WJYVchOFx1MDAwNquqdSyteThITTaMoLRcdTAwMTOCXHUwMDAz1Vx1MDAxY0LYXiFcdTAwMWTZmjLmTLA02dp1TVx1MDAwMFxiZZTulLxcckBcdTAwMDFcdTAwMDDCcSTWhDTVPuqNXHUwMDFhXHUwMDBlkGtJKCeFLXwvOeqcXHUwMDFjg3DUQTpeTFfr75anp/P1enbyiMNP3VDVan56uZiuZ48uZqvV5Vx1MDAwNUdcbtdcdTAwMTeXezGrzfOrqFjz9PPVh+PiraY33kpcdTAwMDZZilnTdrTfXHUwMDE4XG646lx1MDAwZm9cdTAwMWW/+Mfp6nxcdTAwMTI+ukerX1x1MDAxZj3588eH9zvgXHUwMDFhMl1L+vBcYjZcdTAwMTFXm0jUd5S2u1x1MDAwZrmyb/ng9O5cdTAwMDKuqSjTXHUwMDE3b82W/eJ0ftpPvkS8NZjodyz9heKtrEOPjZnmVvNcdTAwMWNFZsh+XHUwMDE17IBBOlx1MDAxMlx1MDAxNUlwXHJcZtKRIT6WJJKiOHp87Lj0dVxidpCusWpuMC+26LZ+znGElsygm6wkO2eqX4PvWHZK1quKk6eg6sXFyXNSTuBWXHUwMDFjoFx1MDAxNOGqxelJxVwiLelWXGKk295iXHUwMDA1LFx1MDAxZCCzcaTeXHUwMDE0IYlRh1x1MDAxMVxijpS9SulcdTAwMWVDXHUwMDFmxFxi2lx1MDAxOFx1MDAwNFItXHUwMDA0l/lcdTAwMTiEXCJYgSPoPavmXathXGa9XHUwMDE1vXJjXHUwMDEwnCxKRyBcdTAwMDTJuzlcdTAwMDZAtHzGXHUwMDAx3GpcdIhccm7FyT7djpM9+3Oq2M84gK7FM45aMJnGXHUwMDAx3EacNlx1MDAwM7jN9vfsn1x1MDAwN33CpPopIVxuPjFcbnNs8ynsKrZccoBcdTAwMWKm1JJcdTAwMWLKt1mDw1x1MDAwMiirWs/gkLrBwlx1MDAxYixFuymKXHJEboXrMIRTWpi90bA72HJcZluyukmvsVx1MDAxZVx1MDAwYoPzjSQ5oraBxGH6KLtcdTAwMGU4wlx1MDAwZsZpLLs/alx1MDAwN4BJcNCLb2YpOYWT+lxm7EXJbYSsi1x1MDAwMetcdTAwMTexTi2Z0NjAnFx1MDAwNGu8XHUwMDE4XHUwMDExn1hcdTAwMGV6gT45I6adcdJKjFx1MDAxYZyG6KW1XkExXHUwMDAy4l5cdTAwMTWF2N/EXHUwMDA25cBkJ6tJRVx1MDAxMFwiXHUwMDFkXHUwMDExIVx1MDAxNP0hlt2+UDzf6izmQDJcdTAwMDTs0CNcZslC4CRRkFxciFUxtVx1MDAwM9NcdTAwMGavgVx1MDAxODNcdTAwMDdJQI+B2KUv3Fx1MDAxNIKDK4J1N1x1MDAxMkLKim2WXHUwMDEzy1xu4JMpXHUwMDBlXCKqsPFgI8LBXGLxKzpcdTAwMTWgn9PkNnjePZhY9M5a014ulXxcdTAwMDGzxmwjSGrFjcVcdTAwMWNcdTAwMThcdTAwMGLmOyNcbnbUhCZoQberza04O4SIXG5cdTAwMGJl8eVpJa857TQ2XHUwMDA0tsRcdTAwMDRccopvz1x1MDAxMTqAXHUwMDEzw1x1MDAxN2bLKsNcdTAwMTBeXHQ+k0lRmJQgRaZ2gIzwvZMxKOSgNdmJ2FwiXG7JmJOAX1VkSko5T6RcZlx1MDAxYZRcdTAwMWLJmqxcdTAwMGWlU1x1MDAwMcz+ulJjXHUwMDBmT4LKYH4225FCON+C6bCNXHUwMDE5Kp2j1k8yjEByTVAgt8nKXGK9pFx1MDAwN1x1MDAxYjz8xoZwdYY0nKHD9NJcdTAwMDG4XHUwMDBihFBALu5FgFx1MDAwM3C9XGL6dmMga1x1MDAwMj1K3t/WN0VHQUrwVuhh2Fx1MDAxOZ/79G6EXedcdTAwMDWXQlLocbKltVx1MDAwMFx1MDAwZiZg8Yg4+9jrJKeiPJZAyHqGlLJm/TbfeVx1MDAxMIE151rN2PNYXHUwMDBmI3hRf6fLXG681rSWyjVI1Gswca+IaUYs68GkucJcdTAwMTmMXHUwMDE1J1x1MDAxMn9GcCNMXHUwMDExk6s9Xr1jilx1MDAxNbeS01x1MDAwN9Fs3GJEXctnuGzDXHUwMDE03VrR+1x1MDAxMFx1MDAwMVx1MDAxN1xmXGYhub1cdFwigUHqayDQ3CuTxfq8YGBXRz9cdTAwMDJ6118zhoipa2NcdTAwMTCOOkj3J1pfYvfhNlhcdTAwMWZsoGuX7v72XHUwMDBiQ7H671x1MDAxZmazPnPPn5Jde37+e3r48zM3ueex+lA7OJpYPVx0jK7v5c5D9VxcLtXNV9pcdTAwMDXrS6gyqtpgvSvBO1x1MDAxMqu7vflcdTAwMDLBemuC2WVcdTAwMGJ8qWC9ab2Co8i84DXWbShpiDqLgti2Sc2Dg3aqdlxyslx1MDAwZlx1MDAxZUw/Lm2Z3VdcdTAwMDejQlxyJbKTxFx1MDAwMkDYWFxmXtX10ZHkIaZW0OFcdTAwMTLKXHUwMDFmSeVcdTAwMDOvQk5kqcOW3iiwZi97ydhqXCL6mMuBVFxuwV9cdTAwMTC0XHUwMDAyXHUwMDE5yHBcdTAwMDC8Vu1IIEDURktKVdQjipSiVJ3CxVZgXHUwMDA2XHUwMDAwacdCrIA2XHUwMDE2tXiNtUKRfcxcbq1CYCOpdlx1MDAxYiWD8jBXQkhO0WThXHUwMDE0+CZ7RMik4PR2uKLDin7VtLtcdTAwMWJcdTAwMTCIbGo3f+JKXHUwMDBmsFSK3VdCXCJcdTAwMTJBwOqp45z+miVcdTAwMTJW09xcdTAwMTTHXGJcdTAwMTZbyqj/jFx1MDAxMbqkaKGaKFx1MDAwZlx1MDAxMlxck96UoNf2XHUwMDAxXHUwMDAxoIehXHUwMDE3XHUwMDAwu1x1MDAxMDiIWS38bYizXHUwMDFlM/c6SHNbel46uKxKXHUwMDA0SFxuvoxF+lx1MDAwMGtcdTAwMDPMPrWrwuF1fkQvXFxnScNZ63z2pIAniWO0jL2RXHUwMDAwQklUUOCVyFKoXHUwMDE251fZ8FxirVx1MDAxNm5cdTAwMTOtUKvUXHUwMDE5IchcdTAwMThI9GBXXHUwMDAxkVx1MDAwYscvXHUwMDA0/PzKXHUwMDAwXHUwMDBlr9R0ui3d6tiTIFx1MDAxM/XQ4zpcdCFcYkohXHUwMDE3XHUwMDFhgVx1MDAwMSVGqMtcdTAwMWI5uVx1MDAwN1x1MDAxNuFcIkBCfW699Khi3Fx1MDAwM1x1MDAxMGE+6iGHi7adXHUwMDE2Q6R3XHUwMDAzsS1cdTAwMTJCIKRiW43q1yzRasWKtFvwMEUllMlG0/bqXHUwMDE4RiiCLIpcbmxgZdi7KKSnkm6J5lx1MDAwNDW127WJQ1pcdTAwMWS2iXRourTZwDFcYu41XHUwMDEwpJZHjpQpkJVZ8NT6eYZLPLlnQlx1MDAxMNKiMlxc5Wm4eVRdulx1MDAwZTelMCS/hZzwYuG0LEZcdTAwMTBC08XBXHRRjCBl+Fx1MDAxM0RcdTAwMDSTWCQ3UVx1MDAwM+FxXHUwMDBioVx1MDAxZlx1MDAwMu39dDWRytIhXHUwMDA0NMDL2ylcdKY9R9cwhK2CrGPIfZF4elx1MDAxNEJUQsr1KFx1MDAwNCv1OVx1MDAxOYPAjTHqsz1cdTAwMDbBZsneXHUwMDE5hWDF9LbicZ3VJLFcdFx1MDAwMJ1cZjBOaoyRiuhHXHUwMDAw6I04vim5l9xYY1x1MDAwMLSk9uJcdTAwMDBcdTAwMWNcdTAwMWJcdTAwMTNONU7v6mtyXHUwMDA0tZHS1nH6vMlsuSF1XHUwMDE2Y3KjXHUwMDAwantnXHUwMDA0eWol+I1cdTAwMDGEsOQoeiG0O4I+ilx1MDAxOUv/XHUwMDEzgKNcdTAwMGXQ/Vx0gO1cdTAwMDdRuuWq0ZhQotW72NJQXGLs2fMnf1+vf3j68te3XHUwMDFmXHUwMDFlpleL5//66cnT+1x1MDAxZFx1MDAwMvN256xsP/jYNFx1MDAwZU6d3Pw7j4BxgzG5VJVcZsaOJbVccn5ZY70je27vky9cdTAwMTH8cv5cdTAwMWVUqlx1MDAxZX677Vx1MDAxMjyKLMJknEYldOzgXFxWMKdmsmsreGCaZrRzT1x1MDAwZkAkUYh5qXpcdTAwMDAyXHUwMDFlt+hBMHRasO6bPfS0jLebXHUwMDAz+zHRvpc9XGJk86FJar1cdTAwMTBcdTAwMTFNme1DiFlhTS976JOBW1x1MDAxZfZCZLDpYFx1MDAxZlx1MDAwMFx1MDAxYtpoN9Y+iIiUXHUwMDE39FJv+rncmL7AjaT6IFxunpd0XHJcdTAwMDTqcLlcdTAwMDZcdTAwMDL1nF03XG60vfE1a3G7edCGRLT/upzWz1x1MDAxMOiGXG4xTe7Wj+Y39COAjmBcdTAwMDKQSn9Mo3SjPdh7IFwi3Di8XHUwMDBmIcBtkXohPFxcP9VcdTAwMGJhQDHpq4ZEJuG1dJMg5OGaXHUwMDA0l9tMtjGYQ3qP81x1MDAxMrd2XHUwMDEwurriTZW4XHUwMDBlRCrv4O60aJBx0tRcdTAwMDNcbttcdTAwMTDhXHUwMDE2vVxcfSjqT9xcdTAwMGJcdTAwMDJzu3BljlRuYzj1XHUwMDAzbppt20Sjw5s74ytqvejbbW5/sG02V1x1MDAwZVx09jO7jdFcdTAwMDW1qT2Ih1x1MDAxMFx1MDAxNu/ezVx1MDAxOVx1MDAxY3VcdTAwMWZzLlSDjrdcXHnE3djRnsNcdTAwMTM5dMhcdTAwMTFcdTAwMDBYXHUwMDE1MzJvclx1MDAxMFx1MDAwMb7E6ZRcdD2Lt9XVXGJ9T0d7tCMhQ0gtj1x1MDAxM1x1MDAxYVx1MDAwNG7mIFxiK1x1MDAxZVx1MDAwM2ygaLkhfMDLN7grvcBSTmH1cFxcRShl85iQXHUwMDE0eGM0Rdh132CSM1x1MDAxZeyFxvV7srhLYE9cdTAwMDCuXHUwMDFhj7V7yiRcdTAwMGJcdTAwMDdcZprmgdKGplxmvyxC7ozI+jl6/SYp1Y61XGKwrSFdoEHI7mBlXGJ944SvW92wRolqIFJcdTAwMWJqLkdcdTAwMDCDR4QgLWGx7WtcdTAwMGaGXHUwMDE5UuboMsJKsnWOXHUwMDEy0yewynRiRSHLvkp0XHUwMDE3rJJWwbdcdIDD7CxcdTAwMDVdXHUwMDE4wYNNXHUwMDA1XGKhooXft2G6b1x1MDAwMbtCXGI0K/Cq1EpcdTAwMTDw41x1MDAwMERWXHUwMDFjhSBsQVx1MDAwMEVS3/jBNDPx9Vx1MDAwNDC5laqYcHJXNVx1MDAxYlx1MDAxYkMrXHRimNxLib44OYk/QdmEycVcYpdpws6YriraXHUwMDFmxUHvICjy2FxynkVh5EbnOY9cYlx1MDAxOEvmXHUwMDBmN99cdTAwMDYzUbg5kHDsslx1MDAwNtVcdKtF0Zk2WaOD5FFqVG5cIvxuXHUwMDE00tClXHUwMDA2PfyeXHUwMDFmsF6iSWdcdTAwMTKmwFx1MDAxNlx1MDAwZkBtxdfvcTpcdTAwMDN4/oJYhMnZXGJcdTAwMTYsXHUwMDA1dbFcdTAwMGWVsl5cdTAwMGJary6p+lx1MDAwNPOrIcBYPbdcdTAwMDaQLnBcdTAwMWbQXFxcdTAwMWVCkFRSXHUwMDAycGB9Or9/oa5Y4ZpccoxcdTAwMDdoXG41rVx1MDAwM13uKPVRXHUwMDA35f9cdTAwMWLnnC1cdTAwMTbz89VMXGZzxtR92oY5MylcdTAwMDaOXGZpvNKv/O3bXHUwMDFmT//zNP2z6Gc/v/u4MKvy7Zv7XHUwMDFk5ixsoHai1VfvQeVcdTAwMTdldTyud9+Vl+ym0lfp15TrXHUwMDFmJm+3lX46W5uK9nfwXHUwMDFh1E8tm25cdTAwMTnGbp583s1rTFxm1LmYxrxcdTAwMWT1Wt49mU9Pl2cnXHUwMDEy73pre3nXuOAziZBcdTAwMDLzbnh/qee//XT25y9cdTAwMTfZPn3j331cYpPf7zfvksHcltZcdTAwMWTybvOGpUP94u7LVN22rVHNuvxWXHUwMDFj1/H7tLxrnSW2dsbcQ94liWfH8+7RRrRcdTAwMWZPz89cdTAwMWavXHSyXHUwMDFkXHUwMDFhTW1+8nj+5+xcdTAwMDDm+N189v7b69f7aDNcdTAwMDfmvEbIf/p89Pm/fvm3PiJ9<!-- payload-end -->
  <defs>
    <style class="style-fonts">
      @font-face {
        font-family: "Virgil";
        src: url("https://unpkg.com/@excalidraw/excalidraw@undefined/dist/excalidraw-assets/Virgil.woff2");
      }
      @font-face {
        font-family: "Cascadia";
        src: url("https://unpkg.com/@excalidraw/excalidraw@undefined/dist/excalidraw-assets/Cascadia.woff2");
      }
      @font-face {
        font-family: "Assistant";
        src: url("https://unpkg.com/@excalidraw/excalidraw@undefined/dist/excalidraw-assets/Assistant-Regular.woff2");
      }
    </style>
    
  </defs>
  <rect x="0" y="0" width="918.48828125" height="526.29296875" fill="transparent"/><g transform="translate(94.4765625 77.94140625) rotate(0 41.318359375 81.267578125)" stroke="none"><path fill="#1e1e1e" d="M 1.65,2.91 Q 1.65,2.91 -1.05,4.58 -3.76,6.26 -7.74,9.33 -11.71,12.40 -15.51,15.73 -19.30,19.06 -23.05,22.76 -26.80,26.46 -30.25,30.23 -33.70,34.00 -36.81,37.96 -39.92,41.91 -42.72,45.98 -45.52,50.04 -47.39,53.31 -49.26,56.58 -50.86,60.08 -52.46,63.58 -54.44,68.78 -56.42,73.98 -57.43,77.45 -58.44,80.92 -59.35,85.99 -60.25,91.06 -60.51,94.47 -60.77,97.89 -60.87,101.48 -60.97,105.08 -60.80,110.39 -60.64,115.71 -59.94,119.28 -59.24,122.86 -58.11,126.02 -56.98,129.18 -55.60,131.67 -54.22,134.15 -52.73,136.26 -51.25,138.37 -49.62,140.31 -47.98,142.25 -44.82,145.08 -41.66,147.91 -39.77,149.33 -37.87,150.75 -35.90,151.96 -33.92,153.16 -31.76,154.39 -29.60,155.62 -27.21,156.90 -24.81,158.17 -22.26,159.28 -19.71,160.39 -15.69,162.08 -11.68,163.76 -8.70,164.63 -5.73,165.49 -0.80,166.91 4.13,168.33 7.45,168.96 10.77,169.59 14.30,170.05 17.82,170.52 21.54,170.92 25.25,171.32 29.24,171.58 33.22,171.84 39.95,172.02 46.68,172.21 51.71,172.15 56.74,172.10 61.26,171.58 65.78,171.06 69.85,170.19 73.92,169.33 77.60,168.10 81.29,166.86 85.09,165.49 88.88,164.12 92.21,162.67 95.53,161.22 100.58,158.38 105.63,155.54 109.21,153.08 112.80,150.63 115.71,148.24 118.63,145.86 121.03,143.41 123.44,140.96 125.44,138.52 127.44,136.09 129.05,133.75 130.66,131.42 131.99,128.98 133.32,126.55 134.62,123.97 135.93,121.38 136.98,118.89 138.03,116.40 138.67,113.88 139.32,111.37 139.95,108.39 140.57,105.41 141.21,101.51 141.85,97.61 142.40,91.27 142.95,84.92 142.96,78.57 142.97,72.21 142.35,67.44 141.74,62.66 140.68,58.49 139.62,54.33 138.32,50.54 137.03,46.75 135.46,43.16 133.90,39.57 132.07,36.26 130.23,32.95 128.47,30.31 126.71,27.66 124.87,25.25 123.04,22.85 121.22,20.75 119.39,18.66 117.64,16.91 115.89,15.16 114.01,13.49 112.14,11.83 110.35,10.35 108.56,8.87 105.12,6.64 101.67,4.41 98.88,3.13 96.09,1.85 93.68,0.99 91.27,0.13 88.94,-0.43 86.61,-0.99 82.72,-2.21 78.83,-3.44 75.51,-4.18 72.19,-4.93 69.29,-5.46 66.39,-6.00 63.59,-6.33 60.79,-6.66 58.00,-7.07 55.21,-7.48 51.46,-7.65 47.71,-7.83 44.35,-7.77 40.99,-7.71 38.52,-7.58 36.05,-7.45 33.11,-7.28 30.18,-7.10 27.89,-5.61 25.59,-4.12 25.89,-4.63 26.19,-5.14 25.68,-4.23 25.18,-3.32 24.41,-2.61 23.64,-1.91 22.69,-1.49 21.73,-1.07 20.70,-0.97 19.66,-0.88 18.64,-1.12 17.63,-1.36 16.75,-1.92 15.87,-2.47 15.20,-3.28 14.54,-4.08 14.18,-5.06 13.81,-6.03 13.77,-7.07 13.73,-8.11 14.03,-9.11 14.32,-10.11 14.92,-10.96 15.52,-11.81 16.37,-12.43 17.21,-13.05 18.20,-13.36 19.19,-13.68 20.23,-13.66 21.28,-13.64 22.26,-13.29 23.24,-12.94 24.06,-12.29 24.87,-11.65 25.44,-10.78 26.01,-9.90 26.27,-8.89 26.53,-7.89 26.46,-6.85 26.38,-5.81 25.98,-4.85 25.58,-3.89 24.89,-3.10 24.20,-2.32 23.30,-1.80 22.40,-1.28 21.38,-1.07 20.35,-0.87 19.32,-1.00 18.29,-1.13 17.35,-1.58 16.41,-2.04 15.67,-2.77 14.92,-3.50 14.45,-4.43 13.98,-5.36 13.83,-6.39 13.68,-7.42 13.87,-8.44 14.06,-9.47 14.06,-9.47 14.05,-9.47 16.97,-12.49 19.89,-15.51 22.49,-16.88 25.09,-18.24 27.63,-18.62 30.17,-18.99 33.15,-18.80 36.13,-18.62 38.69,-18.44 41.25,-18.26 45.02,-17.93 48.79,-17.60 52.76,-16.93 56.74,-16.26 59.37,-15.73 62.00,-15.19 65.06,-14.70 68.12,-14.20 71.03,-13.51 73.94,-12.82 77.41,-12.06 80.88,-11.31 84.98,-10.46 89.08,-9.61 91.78,-8.73 94.49,-7.85 97.05,-6.70 99.61,-5.55 102.67,-4.05 105.72,-2.55 110.17,-0.21 114.62,2.13 116.38,3.88 118.14,5.63 120.08,7.65 122.01,9.68 123.71,11.79 125.42,13.90 127.16,16.33 128.91,18.75 130.66,21.49 132.41,24.22 133.99,27.14 135.58,30.05 137.48,33.63 139.39,37.21 141.01,41.00 142.64,44.80 144.04,48.78 145.43,52.76 146.70,57.25 147.97,61.74 148.82,66.91 149.66,72.08 149.91,78.71 150.16,85.34 149.95,91.92 149.74,98.51 149.44,102.87 149.14,107.23 148.43,110.52 147.72,113.81 146.74,116.88 145.76,119.95 144.43,122.61 143.10,125.27 141.56,127.94 140.02,130.60 138.28,133.25 136.53,135.91 134.54,138.28 132.55,140.65 130.20,143.09 127.84,145.54 125.09,148.04 122.33,150.54 119.21,152.94 116.09,155.33 112.33,158.00 108.58,160.68 103.23,163.80 97.88,166.92 94.37,168.27 90.86,169.61 86.98,171.01 83.10,172.41 79.14,173.68 75.17,174.94 70.85,175.95 66.53,176.95 61.73,177.63 56.92,178.30 51.77,178.53 46.61,178.76 39.79,178.82 32.96,178.87 28.75,178.82 24.54,178.77 20.71,178.45 16.89,178.14 13.09,177.70 9.29,177.27 5.80,176.58 2.31,175.89 -2.94,174.86 -8.19,173.82 -11.34,172.88 -14.49,171.94 -19.04,170.68 -23.59,169.42 -26.54,168.16 -29.49,166.91 -32.07,165.51 -34.65,164.12 -36.94,162.71 -39.22,161.30 -41.52,159.72 -43.82,158.14 -45.79,156.45 -47.76,154.76 -49.68,152.88 -51.61,151.01 -53.07,149.11 -54.53,147.21 -56.18,144.83 -57.82,142.44 -59.24,139.87 -60.65,137.30 -61.96,134.27 -63.27,131.24 -64.36,127.62 -65.44,124.00 -66.12,120.00 -66.81,116.01 -67.15,110.40 -67.49,104.79 -67.27,100.99 -67.05,97.20 -66.54,93.64 -66.03,90.07 -65.14,84.58 -64.25,79.08 -63.02,75.53 -61.79,71.99 -59.80,66.53 -57.82,61.08 -56.04,57.34 -54.26,53.60 -52.18,50.26 -50.09,46.92 -47.24,42.69 -44.38,38.46 -41.19,34.29 -38.01,30.13 -34.53,26.19 -31.06,22.25 -27.29,18.34 -23.52,14.43 -19.71,10.83 -15.89,7.23 -11.60,3.63 -7.31,0.04 -4.48,-1.43 -1.65,-2.91 -1.28,-3.06 -0.91,-3.22 -0.51,-3.28 -0.11,-3.34 0.28,-3.31 0.68,-3.27 1.07,-3.14 1.45,-3.01 1.79,-2.79 2.13,-2.58 2.41,-2.28 2.68,-1.99 2.88,-1.64 3.08,-1.29 3.19,-0.90 3.30,-0.51 3.32,-0.11 3.33,0.28 3.25,0.68 3.17,1.07 2.99,1.44 2.82,1.80 2.56,2.11 2.30,2.42 1.98,2.67 1.65,2.91 1.65,2.91 L 1.65,2.91 Z"/></g><g transform="translate(274.44140625 163.984375) rotate(0 124.4140625 11.935546875)" stroke="none"><path fill="#1e1e1e" d="M 0,-3.18 Q 0,-3.18 4.27,-3.11 8.55,-3.03 12.07,-3.13 15.58,-3.23 24.51,-3.15 33.43,-3.07 42.57,-3.01 51.71,-2.94 58.38,-2.90 65.06,-2.86 73.25,-2.82 81.43,-2.79 90.26,-2.77 99.08,-2.75 107.76,-2.73 116.45,-2.71 124.71,-2.47 132.97,-2.23 141.38,-2.13 149.78,-2.03 157.15,-1.98 164.52,-1.93 171.09,-1.91 177.66,-1.89 183.90,-1.88 190.14,-1.87 194.03,-1.94 197.92,-2.01 202.37,-1.99 206.82,-1.96 210.66,-2.04 214.50,-2.11 218.23,-2.19 221.96,-2.27 224.78,-2.46 227.61,-2.64 229.85,-2.84 232.10,-3.03 234.90,-3.34 237.69,-3.64 240.27,-3.93 242.84,-4.21 245.09,-4.45 247.34,-4.69 247.98,-4.76 248.62,-4.83 249.30,-4.75 249.97,-4.66 250.60,-4.42 251.23,-4.18 251.79,-3.80 252.35,-3.41 252.80,-2.91 253.25,-2.40 253.56,-1.80 253.88,-1.20 254.04,-0.54 254.20,0.10 254.20,0.78 254.20,1.46 254.04,2.11 253.88,2.77 253.56,3.37 253.25,3.97 252.80,4.48 252.35,4.99 251.79,5.37 251.23,5.75 250.60,5.99 249.97,6.23 249.30,6.32 248.62,6.40 245.81,5.40 243.00,4.41 240.62,2.89 238.24,1.37 235.93,-0.39 233.63,-2.17 231.06,-4.01 228.49,-5.84 226.30,-7.35 224.11,-8.85 221.33,-10.66 218.55,-12.46 215.50,-14.31 212.46,-16.16 209.94,-17.74 207.43,-19.32 205.59,-20.67 203.75,-22.01 202.95,-24.67 202.14,-27.33 203.34,-29.89 204.54,-32.45 207.26,-33.51 209.97,-34.57 212.46,-34.11 214.95,-33.65 217.51,-32.49 220.07,-31.33 222.84,-29.62 225.61,-27.90 228.43,-25.67 231.24,-23.43 233.33,-21.37 235.42,-19.31 237.14,-17.31 238.86,-15.32 240.62,-13.61 242.39,-11.91 244.43,-10.27 246.47,-8.64 248.91,-6.65 251.36,-4.66 251.53,-1.40 251.71,1.84 250.67,3.88 249.63,5.92 247.81,7.25 245.99,8.58 243.91,9.89 241.82,11.21 239.59,12.80 237.36,14.39 233.49,16.96 229.62,19.53 226.20,21.97 222.77,24.41 219.84,26.75 216.91,29.09 214.20,31.37 211.48,33.65 209.16,35.82 206.85,37.99 204.43,40.96 202.01,43.93 200.11,46.41 198.21,48.89 194.06,52.79 189.90,56.70 189.04,56.55 188.17,56.41 187.40,55.99 186.62,55.58 186.02,54.94 185.42,54.30 185.05,53.50 184.68,52.70 184.59,51.82 184.50,50.95 184.69,50.09 184.89,49.23 185.34,48.48 185.80,47.73 186.47,47.16 187.14,46.60 187.96,46.28 188.78,45.95 189.66,45.91 190.53,45.87 191.38,46.10 192.23,46.34 192.95,46.84 193.68,47.33 194.21,48.04 194.74,48.74 195.01,49.57 195.29,50.41 195.29,51.29 195.28,52.16 195.00,53.00 194.72,53.83 194.18,54.53 193.65,55.22 192.92,55.71 192.19,56.20 191.34,56.44 190.49,56.67 189.61,56.62 188.74,56.57 187.92,56.24 187.11,55.91 186.44,55.34 185.77,54.77 185.32,54.01 184.87,53.26 184.68,52.40 184.50,51.54 184.60,50.66 184.70,49.79 185.07,48.99 185.44,48.20 186.05,47.56 186.65,46.93 187.43,46.52 188.21,46.11 189.08,45.97 189.95,45.83 189.95,45.83 189.95,45.83 189.22,44.87 188.50,43.91 190.41,41.88 192.31,39.84 195.00,37.23 197.69,34.62 199.24,33.10 200.78,31.57 203.20,29.28 205.61,26.99 208.22,24.57 210.84,22.15 213.57,19.53 216.31,16.91 219.33,13.79 222.36,10.68 225.65,7.38 228.93,4.08 231.35,1.87 233.77,-0.32 236.93,-2.68 240.10,-5.04 239.23,-1.88 238.36,1.26 239.61,3.07 240.87,4.87 239.10,3.61 237.33,2.35 235.23,0.53 233.13,-1.29 231.40,-2.97 229.67,-4.65 228.27,-6.31 226.87,-7.97 224.75,-10.26 222.63,-12.55 220.35,-14.33 218.06,-16.10 215.98,-17.39 213.89,-18.68 212.88,-20.66 211.86,-22.63 213.14,-26.77 214.42,-30.91 216.22,-29.61 218.02,-28.30 219.81,-27.01 221.60,-25.72 223.61,-24.45 225.63,-23.17 228.64,-21.17 231.64,-19.18 233.92,-17.46 236.20,-15.75 238.62,-13.89 241.03,-12.03 243.19,-10.17 245.35,-8.30 246.99,-6.56 248.62,-4.83 249.30,-4.75 249.97,-4.66 250.60,-4.42 251.23,-4.18 251.79,-3.80 252.35,-3.41 252.80,-2.91 253.25,-2.40 253.56,-1.80 253.88,-1.20 254.04,-0.54 254.20,0.10 254.20,0.78 254.20,1.46 254.04,2.11 253.88,2.77 253.56,3.37 253.25,3.97 252.80,4.48 252.35,4.98 251.79,5.37 251.23,5.75 250.60,5.99 249.97,6.23 249.30,6.32 248.62,6.40 247.98,6.33 247.34,6.26 245.09,6.02 242.84,5.78 240.27,5.50 237.69,5.21 234.89,4.91 232.10,4.60 229.85,4.41 227.61,4.21 224.78,4.03 221.96,3.84 218.23,3.76 214.50,3.68 210.66,3.61 206.82,3.53 202.37,3.55 197.92,3.58 194.02,3.49 190.13,3.41 183.89,3.41 177.65,3.41 171.07,3.39 164.49,3.38 157.11,3.35 149.72,3.31 141.27,3.22 132.82,3.14 124.63,2.92 116.44,2.71 107.76,2.73 99.08,2.75 90.26,2.77 81.43,2.79 73.25,2.82 65.06,2.86 58.38,2.90 51.71,2.94 42.57,3.01 33.43,3.07 24.51,3.15 15.58,3.23 12.07,3.13 8.55,3.03 4.27,3.11 0,3.18 -0.38,3.14 -0.76,3.09 -1.12,2.96 -1.48,2.82 -1.79,2.60 -2.11,2.38 -2.37,2.09 -2.62,1.81 -2.80,1.47 -2.98,1.13 -3.07,0.75 -3.16,0.38 -3.16,-0.00 -3.16,-0.38 -3.07,-0.75 -2.98,-1.13 -2.80,-1.47 -2.62,-1.81 -2.37,-2.10 -2.11,-2.38 -1.79,-2.60 -1.48,-2.82 -1.12,-2.96 -0.76,-3.09 -0.38,-3.14 0.00,-3.18 0.00,-3.18 L 0,-3.18 Z"/></g><g transform="translate(238.84765625 260.73828125) rotate(0 78.072265625 47.513671875)" stroke="none"><path fill="#1e1e1e" d="M 1.06,-2.99 Q 1.06,-2.99 4.94,-1.57 8.82,-0.15 12.40,1.41 15.98,2.98 23.55,6.61 31.12,10.24 38.28,14.35 45.44,18.45 52.15,22.38 58.87,26.31 65.08,29.88 71.28,33.45 75.58,36.14 79.88,38.83 84.39,41.50 88.89,44.18 93.56,47.09 98.23,50.01 102.08,52.44 105.94,54.87 109.46,57.07 112.98,59.28 115.68,60.74 118.38,62.21 121.90,64.24 125.43,66.28 127.88,67.69 130.34,69.11 132.73,70.77 135.11,72.43 136.83,73.83 138.54,75.23 139.60,76.39 140.66,77.54 140.88,78.17 141.10,78.81 141.15,79.48 141.21,80.15 141.11,80.82 141.00,81.48 140.74,82.10 140.48,82.72 140.08,83.26 139.68,83.80 139.16,84.23 138.64,84.66 138.03,84.95 137.43,85.24 136.77,85.38 136.11,85.52 135.44,85.49 134.76,85.47 134.12,85.29 133.47,85.10 132.88,84.77 132.30,84.44 131.81,83.97 131.32,83.51 130.96,82.94 130.60,82.37 130.48,80.25 130.36,78.12 129.58,76.02 128.80,73.92 128.19,71.22 127.57,68.51 126.91,65.97 126.25,63.43 125.74,60.92 125.23,58.42 124.81,55.30 124.39,52.17 123.95,49.87 123.52,47.56 123.42,47.26 123.32,46.96 123.40,46.14 123.47,45.32 123.74,44.55 124.01,43.77 124.46,43.08 124.91,42.39 125.51,41.83 126.11,41.26 126.83,40.86 127.54,40.46 128.34,40.24 129.13,40.02 129.95,40.00 130.77,39.97 131.58,40.15 132.38,40.32 133.12,40.68 133.86,41.04 134.49,41.57 135.12,42.10 135.61,42.76 136.09,43.42 136.41,44.18 136.72,44.95 136.84,45.76 136.96,46.57 137.83,48.57 138.70,50.57 139.77,52.82 140.84,55.08 141.98,57.38 143.13,59.68 144.44,62.18 145.74,64.68 147.17,67.33 148.59,69.98 149.94,72.47 151.29,74.96 153.21,77.90 155.13,80.84 156.88,83.36 158.63,85.88 159.91,88.07 161.20,90.27 160.68,94.17 160.17,98.07 158.47,99.47 156.77,100.87 154.13,101.19 151.50,101.50 148.27,101.54 145.04,101.58 139.61,101.28 134.18,100.98 130.79,100.66 127.40,100.34 124.48,100.07 121.56,99.79 118.78,99.65 115.99,99.51 113.34,99.45 110.69,99.40 106.86,99.48 103.04,99.57 99.48,99.66 95.92,99.76 93.54,99.86 91.17,99.97 88.83,100.02 86.50,100.08 85.52,99.92 84.55,99.76 83.67,99.30 82.80,98.83 82.12,98.12 81.44,97.40 81.03,96.50 80.61,95.60 80.51,94.62 80.40,93.64 80.61,92.68 80.82,91.71 81.33,90.86 81.84,90.02 82.60,89.38 83.35,88.74 84.27,88.37 85.18,88.01 86.17,87.95 87.16,87.90 88.11,88.17 89.06,88.43 89.88,88.98 90.70,89.54 91.29,90.33 91.89,91.11 92.21,92.05 92.52,92.98 92.52,93.97 92.52,94.96 92.21,95.90 91.89,96.83 91.29,97.62 90.70,98.41 89.88,98.96 89.06,99.51 88.11,99.78 87.16,100.04 86.17,99.99 85.18,99.94 84.26,99.57 83.35,99.20 82.59,98.56 81.84,97.92 81.33,97.08 80.82,96.23 80.61,95.27 80.40,94.30 80.51,93.32 80.61,92.34 81.03,91.44 81.44,90.54 82.12,89.83 82.80,89.11 83.68,88.65 84.55,88.18 85.52,88.02 86.50,87.87 86.50,87.87 86.50,87.87 88.83,87.92 91.17,87.97 93.55,88.08 95.93,88.19 99.50,88.29 103.07,88.40 106.96,88.53 110.84,88.66 113.58,88.68 116.33,88.71 119.35,88.74 122.38,88.78 125.16,88.93 127.93,89.08 131.05,89.07 134.17,89.06 139.58,88.76 144.99,88.45 148.36,89.60 151.72,90.75 150.98,93.58 150.24,96.41 149.36,94.35 148.48,92.30 146.94,89.77 145.41,87.23 143.44,83.90 141.48,80.57 140.06,78.21 138.64,75.85 136.98,73.27 135.32,70.70 133.72,68.16 132.12,65.63 130.78,63.33 129.44,61.03 128.09,58.66 126.74,56.29 125.03,51.62 123.32,46.96 123.40,46.14 123.47,45.32 123.74,44.55 124.01,43.77 124.46,43.08 124.91,42.39 125.51,41.83 126.11,41.26 126.83,40.86 127.54,40.46 128.34,40.24 129.13,40.02 129.95,40.00 130.77,39.97 131.58,40.15 132.38,40.32 133.12,40.68 133.86,41.04 134.49,41.57 135.12,42.10 135.61,42.76 136.09,43.42 136.41,44.18 136.72,44.94 136.84,45.76 136.96,46.57 137.03,46.70 137.10,46.84 137.34,49.00 137.59,51.16 137.76,53.68 137.93,56.20 138.29,58.54 138.64,60.87 139.18,63.51 139.71,66.14 140.07,68.49 140.43,70.85 140.55,74.19 140.66,77.54 140.88,78.17 141.09,78.81 141.15,79.48 141.21,80.15 141.11,80.82 141.00,81.48 140.74,82.10 140.48,82.72 140.08,83.26 139.68,83.80 139.16,84.23 138.64,84.66 138.03,84.95 137.43,85.24 136.77,85.38 136.11,85.52 135.44,85.49 134.76,85.47 134.12,85.29 133.47,85.10 132.88,84.77 132.30,84.44 131.81,83.97 131.32,83.51 130.96,82.94 130.60,82.37 131.36,83.19 132.11,84.01 130.22,81.85 128.33,79.70 126.62,78.01 124.91,76.33 122.76,74.40 120.61,72.47 117.84,69.97 115.07,67.46 112.58,65.66 110.09,63.85 106.59,61.62 103.09,59.39 99.25,56.98 95.40,54.57 90.77,51.71 86.14,48.84 81.57,46.16 77.00,43.48 72.77,40.88 68.53,38.28 62.28,34.76 56.03,31.23 49.29,27.38 42.56,23.53 35.56,19.63 28.55,15.73 20.95,12.25 13.35,8.77 10.05,7.22 6.75,5.67 2.84,4.33 -1.06,2.99 -1.40,2.82 -1.74,2.65 -2.04,2.40 -2.33,2.16 -2.55,1.84 -2.78,1.53 -2.92,1.18 -3.07,0.82 -3.12,0.44 -3.17,0.06 -3.14,-0.31 -3.10,-0.69 -2.97,-1.05 -2.84,-1.41 -2.63,-1.73 -2.42,-2.05 -2.14,-2.31 -1.86,-2.57 -1.52,-2.76 -1.19,-2.94 -0.82,-3.04 -0.45,-3.14 -0.06,-3.15 0.31,-3.16 0.68,-3.08 1.06,-2.99 1.06,-2.99 L 1.06,-2.99 Z"/></g><g transform="translate(112.16796875 300.99609375) rotate(0 2.46875 97.6484375)" stroke="none"><path fill="#1e1e1e" d="M 3.12,0.09 Q 3.12,0.09 2.89,5.42 2.66,10.75 1.57,21.74 0.48,32.73 0.01,42.63 -0.46,52.53 -0.67,62.51 -0.88,72.49 -0.98,82.51 -1.08,92.53 -1.12,99.90 -1.17,107.27 -1.20,115.33 -1.22,123.40 -1.23,131.36 -1.25,139.32 -1.25,144.17 -1.26,149.01 -1.27,154.51 -1.27,160.02 -1.08,163.21 -0.89,166.40 -0.80,169.97 -0.71,173.54 -0.53,176.31 -0.35,179.07 -0.01,182.49 0.33,185.91 0.60,188.14 0.88,190.36 0.88,190.39 0.88,190.41 0.81,190.98 0.74,191.56 0.54,192.10 0.33,192.64 0.00,193.12 -0.32,193.60 -0.75,193.98 -1.19,194.37 -1.70,194.64 -2.21,194.91 -2.78,195.05 -3.34,195.19 -3.92,195.19 -4.50,195.19 -5.06,195.05 -5.63,194.91 -6.14,194.64 -6.66,194.37 -7.09,193.98 -7.52,193.60 -7.85,193.12 -8.18,192.64 -8.39,192.10 -8.60,191.56 -8.67,190.98 -8.74,190.41 -8.58,188.28 -8.43,186.15 -9.32,183.81 -10.21,181.47 -12.31,178.85 -14.41,176.23 -16.96,173.60 -19.50,170.96 -21.75,168.62 -24.00,166.27 -26.05,163.97 -28.10,161.66 -29.82,159.78 -31.54,157.89 -33.34,156.14 -35.13,154.40 -36.61,152.90 -38.08,151.40 -38.46,150.69 -38.84,149.97 -39.03,149.19 -39.23,148.40 -39.23,147.59 -39.23,146.79 -39.04,146.00 -38.85,145.22 -38.48,144.50 -38.10,143.78 -37.57,143.18 -37.03,142.57 -36.37,142.11 -35.70,141.65 -34.95,141.36 -34.19,141.08 -33.39,140.98 -32.59,140.88 -31.79,140.97 -30.99,141.07 -30.23,141.35 -29.47,141.64 -28.81,142.10 -28.14,142.55 -27.60,143.16 -27.07,143.76 -25.56,145.64 -24.05,147.52 -21.59,151.65 -19.13,155.77 -17.68,158.00 -16.24,160.23 -14.64,162.96 -13.04,165.69 -11.50,168.42 -9.96,171.15 -8.37,173.97 -6.79,176.79 -5.57,178.64 -4.36,180.49 -2.57,182.96 -0.77,185.42 0.62,187.45 2.02,189.48 3.51,187.62 5.00,185.76 7.46,182.40 9.91,179.03 11.39,177.03 12.87,175.03 15.61,171.60 18.35,168.16 20.40,165.32 22.45,162.48 23.50,160.62 24.55,158.76 26.80,154.44 29.05,150.12 30.85,146.37 32.65,142.63 33.04,142.09 33.44,141.56 33.95,141.14 34.45,140.72 35.05,140.43 35.64,140.15 36.29,140.01 36.94,139.87 37.60,139.90 38.26,139.92 38.89,140.10 39.53,140.28 40.10,140.60 40.68,140.93 41.16,141.38 41.64,141.84 41.99,142.39 42.35,142.95 42.56,143.58 42.78,144.20 42.84,144.86 42.89,145.52 42.79,146.17 42.69,146.82 42.44,147.43 42.18,148.04 37.85,148.62 33.53,149.20 33.01,148.48 32.50,147.76 32.24,146.91 31.98,146.06 32.01,145.17 32.03,144.29 32.34,143.46 32.65,142.62 33.21,141.93 33.77,141.24 34.51,140.77 35.26,140.29 36.12,140.08 36.98,139.87 37.87,139.94 38.75,140.02 39.57,140.37 40.38,140.72 41.04,141.32 41.70,141.91 42.13,142.68 42.57,143.46 42.73,144.33 42.89,145.20 42.77,146.08 42.65,146.96 42.25,147.75 41.86,148.54 41.23,149.17 40.60,149.79 39.80,150.19 39.01,150.58 38.13,150.70 37.25,150.81 36.38,150.64 35.51,150.47 34.74,150.03 33.97,149.60 33.38,148.93 32.79,148.27 32.44,147.46 32.09,146.64 32.02,145.76 31.95,144.87 32.17,144.01 32.39,143.15 32.87,142.41 33.35,141.66 34.04,141.11 34.73,140.55 35.56,140.25 36.40,139.95 37.28,139.93 38.17,139.91 39.02,140.17 39.86,140.43 36.26,141.53 32.65,142.63 33.04,142.10 33.44,141.56 33.94,141.14 34.45,140.72 35.05,140.43 35.64,140.15 36.29,140.01 36.94,139.87 37.60,139.90 38.26,139.92 38.89,140.10 39.53,140.28 40.10,140.60 40.68,140.93 41.16,141.38 41.64,141.84 41.99,142.39 42.35,142.95 42.56,143.58 42.78,144.20 42.84,144.86 42.89,145.52 42.79,146.17 42.69,146.82 42.44,147.43 42.18,148.04 40.28,151.66 38.38,155.28 37.15,157.51 35.92,159.75 34.76,161.96 33.59,164.17 32.34,166.15 31.09,168.13 29.33,171.12 27.58,174.10 25.48,178.18 23.39,182.25 21.97,184.47 20.55,186.69 19.32,188.50 18.09,190.31 16.90,192.14 15.70,193.97 13.47,196.54 11.24,199.12 8.13,200.50 5.02,201.87 2.88,201.77 0.73,201.67 -1.44,201.18 -3.63,200.68 -5.89,198.40 -8.15,196.11 -9.19,194.02 -10.23,191.94 -11.93,189.17 -13.63,186.40 -14.84,184.45 -16.04,182.50 -17.85,179.82 -19.65,177.14 -21.35,174.63 -23.04,172.13 -24.70,169.79 -26.36,167.44 -28.25,165.00 -30.14,162.57 -32.56,158.98 -34.98,155.39 -36.53,153.40 -38.08,151.40 -38.46,150.69 -38.84,149.97 -39.03,149.19 -39.23,148.40 -39.23,147.60 -39.23,146.79 -39.04,146.00 -38.85,145.22 -38.48,144.50 -38.10,143.79 -37.57,143.18 -37.03,142.57 -36.37,142.11 -35.70,141.65 -34.95,141.36 -34.19,141.08 -33.39,140.98 -32.59,140.88 -31.79,140.97 -30.99,141.07 -30.23,141.35 -29.47,141.64 -28.81,142.10 -28.14,142.55 -27.61,143.16 -27.07,143.76 -26.81,144.06 -26.55,144.35 -24.96,146.11 -23.38,147.87 -21.92,149.64 -20.46,151.42 -18.66,153.69 -16.86,155.95 -15.08,158.03 -13.30,160.11 -10.86,162.83 -8.41,165.55 -6.84,167.21 -5.27,168.88 -3.57,170.94 -1.87,173.00 -0.31,175.75 1.24,178.50 1.78,181.90 2.31,185.29 1.60,187.85 0.88,190.41 0.81,190.98 0.74,191.56 0.54,192.10 0.33,192.64 0.00,193.12 -0.32,193.60 -0.75,193.98 -1.19,194.37 -1.70,194.64 -2.21,194.91 -2.78,195.05 -3.34,195.19 -3.92,195.19 -4.50,195.19 -5.06,195.05 -5.63,194.91 -6.14,194.64 -6.66,194.37 -7.09,193.98 -7.52,193.60 -7.85,193.12 -8.18,192.64 -8.39,192.10 -8.60,191.56 -8.67,190.98 -8.74,190.41 -8.73,190.39 -8.73,190.36 -8.45,188.14 -8.18,185.91 -7.83,182.49 -7.49,179.07 -7.31,176.31 -7.13,173.54 -7.04,169.97 -6.95,166.40 -6.76,163.21 -6.57,160.02 -6.57,154.51 -6.57,149.01 -6.57,144.16 -6.58,139.32 -6.58,131.35 -6.58,123.39 -6.57,115.32 -6.57,107.24 -6.55,99.87 -6.53,92.49 -6.47,82.44 -6.41,72.39 -6.25,62.34 -6.09,52.29 -5.68,42.23 -5.27,32.18 -4.29,21.38 -3.31,10.57 -3.21,5.23 -3.12,-0.09 -3.06,-0.46 -3.00,-0.83 -2.86,-1.18 -2.72,-1.53 -2.49,-1.83 -2.27,-2.14 -1.98,-2.38 -1.69,-2.62 -1.35,-2.78 -1.01,-2.95 -0.64,-3.03 -0.28,-3.11 0.09,-3.10 0.47,-3.08 0.83,-2.98 1.19,-2.88 1.52,-2.70 1.85,-2.51 2.12,-2.25 2.40,-1.99 2.60,-1.68 2.80,-1.36 2.93,-1.01 3.05,-0.65 3.08,-0.27 3.12,0.09 3.12,0.09 L 3.12,0.09 Z"/></g><g stroke-linecap="round" transform="translate(620.54296875 64.65625) rotate(0 133.97265625 122.20703125)"><path d="M166.59 4.42 C180.4 5.82, 194.01 13.11, 206.21 20.28 C218.4 27.46, 230.61 37.15, 239.76 47.46 C248.9 57.78, 256.33 69.96, 261.08 82.18 C265.84 94.39, 268.17 107.65, 268.27 120.73 C268.37 133.81, 266.26 147.97, 261.68 160.66 C257.1 173.36, 249.76 186.18, 240.81 196.9 C231.86 207.62, 220.31 217.61, 208 224.98 C195.69 232.35, 180.93 238.07, 166.97 241.14 C153.01 244.21, 138.49 244.68, 124.23 243.41 C109.96 242.13, 94.68 238.46, 81.36 233.48 C68.05 228.49, 55.27 222.13, 44.33 213.49 C33.39 204.85, 22.76 193.44, 15.72 181.63 C8.68 169.81, 4.3 155.7, 2.09 142.58 C-0.12 129.46, 0.16 115.79, 2.45 102.9 C4.75 90.02, 9.23 76.8, 15.86 65.27 C22.49 53.74, 31.49 42.95, 42.21 33.73 C52.92 24.52, 66.81 15.5, 80.14 10 C93.48 4.5, 107.01 1.47, 122.21 0.76 C137.42 0.04, 162.12 4.32, 171.38 5.73 C180.63 7.13, 178.36 7.2, 177.77 9.2 M191.83 11.19 C205.4 14.71, 217.68 25.6, 228.02 35.19 C238.36 44.79, 247.32 56.76, 253.86 68.74 C260.39 80.72, 265.34 93.95, 267.24 107.06 C269.14 120.17, 268.14 134.71, 265.24 147.37 C262.35 160.04, 257.39 171.9, 249.85 183.03 C242.31 194.15, 231.14 205.35, 220 214.11 C208.86 222.88, 196.29 230.48, 182.99 235.61 C169.69 240.75, 154.32 244.39, 140.21 244.91 C126.1 245.43, 112.05 242.31, 98.3 238.72 C84.56 235.12, 69.64 230.91, 57.72 223.35 C45.8 215.78, 35.18 203.99, 26.78 193.33 C18.37 182.67, 11.79 171.98, 7.29 159.38 C2.78 146.78, -0.74 131.31, -0.25 117.73 C0.23 104.16, 4.87 90.22, 10.2 77.92 C15.53 65.61, 22.82 53.92, 31.74 43.92 C40.65 33.92, 51.4 24.81, 63.68 17.92 C75.96 11.03, 91.22 5.25, 105.43 2.56 C119.63 -0.12, 134.7 0.33, 148.9 1.8 C163.1 3.27, 183.77 9.32, 190.63 11.38 C197.49 13.44, 190.98 12.44, 190.08 14.15" stroke="#1e1e1e" stroke-width="2" fill="none"/></g><g stroke-linecap="round" transform="translate(349.15234375 30) rotate(0 67.7109375 68.669921875)"><path d="M85 17.25 C93.89 24.11, 99.73 31.73, 118.42 51.75 M85 17.25 C95.74 28.49, 107.43 40.07, 118.42 51.75 M118.42 51.75 C137.13 69.68, 137.23 67.39, 118.42 86.25 M118.42 51.75 C136.38 70.62, 134.43 68.72, 118.42 86.25 M118.42 86.25 C104.36 99.29, 94.4 110.94, 85 120.09 M118.42 86.25 C108.3 95.83, 98.04 106.48, 85 120.09 M85 120.09 C67.05 138.75, 67.6 136.61, 51 120.09 M85 120.09 C66.03 138.17, 68.21 138.41, 51 120.09 M51 120.09 C40.02 107.41, 28.37 100.04, 17 86.25 M51 120.09 C41.49 111.21, 31.26 100.86, 17 86.25 M17 86.25 C-0.83 67.9, 0.83 68.21, 17 51.75 M17 86.25 C1.35 68.24, -0.13 69.81, 17 51.75 M17 51.75 C23.29 43.05, 34.14 36.73, 51 17.25 M17 51.75 C27.74 40.81, 38.47 28.93, 51 17.25 M51 17.25 C69.39 1.87, 67.84 0.98, 85 17.25 M51 17.25 C65.88 -0.19, 66.35 1.25, 85 17.25" stroke="#1e1e1e" stroke-width="2" fill="none"/></g></svg>